<svg xmlns="http://www.w3.org/2000/svg" width="16" height="16" fill="none"><g clip-path="url(#a)"><path fill="#f2ece6" d="m10.964 0 .572.001q.241.001.482.007c.35.01.702.03 1.048.092.35.063.677.167.996.329a3.35 3.35 0 0 1 1.465 1.465c.162.319.266.645.329.996.062.346.082.698.092 1.048q.005.24.006.481l.001.572v6.545q-.002.24-.007.48c-.01.35-.031.703-.093 1.049a3.5 3.5 0 0 1-.328.997 3.35 3.35 0 0 1-1.465 1.465 3.5 3.5 0 0 1-.996.328 7 7 0 0 1-1.05.092q-.24.007-.48.007l-.572.001H4.42q-.24-.002-.481-.008c-.35-.009-.702-.03-1.048-.092a3.6 3.6 0 0 1-.996-.328 3.35 3.35 0 0 1-1.465-1.465 3.5 3.5 0 0 1-.33-.997 7 7 0 0 1-.09-1.048q-.007-.24-.008-.48V4.42q.001-.242.007-.482c.01-.35.03-.703.092-1.048.063-.351.167-.678.329-.997A3.35 3.35 0 0 1 1.894.429c.319-.162.645-.265.996-.328A7 7 0 0 1 3.938.008a22 22 0 0 1 .481-.007h6.545m-.106 2.51-4.743.957-.001.001a.66.66 0 0 0-.296.133.48.48 0 0 0-.16.307c-.003.027-.01.082-.01.162v5.935c0 .139-.012.273-.106.388s-.21.15-.345.177l-.311.062c-.392.079-.646.133-.877.223-.22.085-.386.194-.517.332a1.25 1.25 0 0 0-.332.992c.031.297.165.58.394.79.155.142.348.25.576.295.236.047.488.031.856-.043.196-.04.379-.102.553-.205q.261-.154.437-.403.172-.251.232-.547c.043-.203.053-.386.053-.588V6.329c0-.275.078-.348.3-.402.02-.004 3.943-.795 4.127-.831.256-.05.378.024.378.293v3.515c0 .139-.002.28-.097.395-.094.115-.21.15-.346.177l-.31.062c-.392.08-.646.133-.877.222-.22.086-.386.195-.518.333a1.26 1.26 0 0 0-.34.992c.032.297.174.58.403.79.154.141.348.246.576.292.236.048.488.03.855-.044.196-.04.38-.098.554-.2q.261-.156.437-.405c.116-.166.19-.35.232-.547.043-.203.045-.386.045-.588V2.857c0-.273-.144-.441-.4-.42-.04.004-.38.064-.422.073"/></g><defs><clipPath id="a"><path fill="#fff" d="M0 0h16v16H0z"/></clipPath></defs></svg>
