<svg xmlns="http://www.w3.org/2000/svg" width="16" height="16" fill="none"><path fill="#f2ece6" d="M11.718 0C14.083 0 16 1.89 16 4.222v7.556C16 14.11 14.083 16 11.718 16H4.282C1.917 16 0 14.11 0 11.778V4.222C0 1.89 1.917 0 4.282 0zM4.282 1.333c-1.618 0-2.93 1.294-2.93 2.89v7.555c0 1.595 1.312 2.889 2.93 2.889h7.436c1.618 0 2.93-1.294 2.93-2.89V4.223c0-1.595-1.312-2.889-2.93-2.889zm3.605 2.445c2.365 0 4.282 1.89 4.282 4.222s-1.917 4.222-4.282 4.222c-2.364 0-4.281-1.89-4.281-4.222s1.917-4.222 4.281-4.222m0 1.333c-1.618 0-2.93 1.294-2.93 2.889s1.312 2.889 2.93 2.889 2.93-1.294 2.93-2.889-1.312-2.889-2.93-2.889m4.507-2.444c.498 0 .902.398.902.889 0 .49-.404.888-.902.888a.895.895 0 0 1-.901-.888c0-.491.403-.89.901-.89"/></svg>
