<svg xmlns="http://www.w3.org/2000/svg" width="16" height="16" fill="none"><path fill="#f2ece6" d="M11.718 0C14.08 0 16 1.893 16 4.222v7.556C16 14.107 14.08 16 11.718 16H4.282C1.92 16 0 14.107 0 11.778V4.222C0 1.893 1.92 0 4.282 0zM8 3.778C5.638 3.778 3.718 5.67 3.718 8S5.638 12.222 8 12.222 12.282 10.33 12.282 8 10.362 3.778 8 3.778M8 5.11c1.618 0 2.93 1.294 2.93 2.889S9.618 10.889 8 10.889 5.07 9.595 5.07 8 6.382 5.111 8 5.111m4.958-2.889c-.496 0-.902.4-.902.89 0 .488.406.888.902.888.495 0 .901-.4.901-.889a.9.9 0 0 0-.901-.889"/></svg>
