<svg xmlns="http://www.w3.org/2000/svg" width="393" height="72" fill="none"><g clip-path="url(#a)"><path fill="#f2ece6" d="M393 72H0V0h393zM286.887 24.48q-2.6 1.24-3.96 3.24a7.4 7.4 0 0 0-1.361 4.32q0 2.48 1.441 4.44 1.44 1.92 4.16 3.28v7.12q-2.52-1.04-4.12-2.36l-1.32 1.8q.8.72 2.2 1.56 1.44.84 3.24 1.52v6.08h7.96v-4.4q1.32.12 2.8.12h.479v4.28h7.96V49.8q2.961-1.2 4.521-3.24a7.6 7.6 0 0 0 1.559-4.68q0-2.68-1.559-4.56-1.52-1.88-4.561-3.16v-7q1.92.88 3.08 1.84l1.361-1.8q-.64-.6-1.8-1.28a20 20 0 0 0-2.641-1.28v-6.16h-7.96v4.4q-1.32-.12-2.84-.12h-.679v-4.28h-7.96zM84.073 42.6q0 4.36 3.08 6.48 3.12 2.12 10.36 2.12 4.8 0 7.68-.72 2.88-.76 4.32-2.6 1.44-1.881 1.44-5.28V23h-2.36v19.6q0 5.44-4.64 5.44-2.08 0-3.36-1.28-1.24-1.32-1.24-4.16V23h-15.28zm163.142-19.84q-4.48 0-7.24.72t-5 2.96q-3.48 3.44-3.48 10.52 0 6.68 3.88 10.56 1.96 1.96 4.68 2.84 2.76.84 7.16.84l4.04-.04q7.28-.16 13.04-.16V37.32h-12.24V48.4q-3.12 0-4.6-3.88-1.12-3.04-1.12-7.56 0-2.76.48-5.16.52-2.72 1.72-4.36 1.4-1.88 3.52-1.88 2.28 0 3.76 1.4 1.48 1.36 2.16 3.28.72 1.88.88 3.68h2.28q-.12-2.12-.92-4.32-.76-2.24-2.12-3.8-1.641-1.88-4.2-2.44-2.52-.6-6.68-.6M47.12 51h14.04V23H47.12zm14.04-14.04L69.44 51h14.12l-8.88-14.04 7-13.96H67.72zM113.175 51h2.439V32.36l14 18.64h9.401V23h-2.401v14l-11.679-14h-11.76zm28.086 0h13.04V23h-13.04zm15.312 0h29.24v-2.4h-15.2V23h-14.04zm31.524 0h13.04V23h-13.04zm15.312 0h2.44V32.36l14 18.64h9.4V23h-2.4v14l-11.68-14h-11.76zm63.125 0h13.04V23h-13.04zm43.978-25.64h10.52V51h14V25.36h10.56V23h-35.08zm-14.906 17.16q4.281 1.2 4.281 3.36 0 1.239-1.2 1.92t-3.56.68v-6.12zm2.76-10.68-1.04-.28q-2.8-.76-3.8-1.52-1-.8-1-1.84 0-1.36 1.321-2.12 1.36-.8 3.88-.8h.639zM154 14.107c0-3.759-5.056-4.072-6.5-1.13-1.444-2.942-6.5-2.629-6.5 1.13S147.5 21 147.5 21c.001 0 6.5-3.134 6.5-6.893"/><path fill="#c41512" d="M147.5 12.976c-1.444-2.941-6.5-2.628-6.5 1.132S147.5 21 147.5 21s6.5-3.133 6.5-6.892-5.056-4.073-6.5-1.132"/></g><defs><clipPath id="a"><path fill="#fff" d="M0 0h393v72H0z"/></clipPath></defs></svg>