<svg xmlns="http://www.w3.org/2000/svg" width="393" height="72" fill="none"><path fill="#f2ece6" d="M0 0h393v72H0z"/><path fill="#c41512" d="M147.5 12.976c-1.444-2.941-6.5-2.628-6.5 1.132S147.5 21 147.5 21s6.5-3.133 6.5-6.892-5.056-4.073-6.5-1.132"/><path fill="#0b0c0f" d="M47.12 23h14.04v28H47.12zm14.04 13.96L67.72 23h13.96l-7 13.96L83.56 51H69.44zM97.513 51.2q-7.24 0-10.36-2.12-3.08-2.12-3.08-6.48V23h15.28v19.6q0 2.84 1.24 4.16 1.28 1.28 3.36 1.28 4.64 0 4.64-5.44V23h2.36v19.6q0 3.4-1.44 5.28-1.44 1.84-4.32 2.6-2.88.72-7.68.72M113.175 23h11.76l11.68 14V23h2.4v28h-9.4l-14-18.64V51h-2.44zm28.086 0h13.04v28h-13.04zm15.312 0h14.04v25.6h15.2V51h-29.24zm31.524 0h13.04v28h-13.04zm15.312 0h11.76l11.68 14V23h2.4v28h-9.4l-14-18.64V51h-2.44zm28.086 13.96q0-7.08 3.48-10.52 2.24-2.24 5-2.96t7.24-.72q4.16 0 6.68.6 2.56.56 4.2 2.44 1.36 1.56 2.12 3.8.8 2.2.92 4.32h-2.28q-.16-1.8-.88-3.68a8 8 0 0 0-2.16-3.28q-1.48-1.4-3.76-1.4-2.12 0-3.52 1.88-1.2 1.64-1.72 4.36-.48 2.4-.48 5.16 0 4.52 1.12 7.56 1.48 3.88 4.6 3.88V37.32h12.24V51q-5.76 0-13.04.16l-4.04.04q-4.4 0-7.16-.84-2.72-.88-4.68-2.84-3.88-3.88-3.88-10.56M266.534 23h13.04v28h-13.04zm45.913 18.88q0 2.6-1.56 4.68-1.56 2.04-4.52 3.24v5.68h-7.96V51.2h-.48q-1.48 0-2.8-.12v4.4h-7.96V49.4q-1.8-.68-3.24-1.52-1.4-.84-2.2-1.56l1.32-1.8q1.6 1.32 4.12 2.36v-7.12q-2.72-1.36-4.16-3.28-1.44-1.96-1.44-4.44a7.4 7.4 0 0 1 1.36-4.32q1.359-2 3.96-3.24v-6h7.96v4.28h.68q1.52 0 2.84.12v-4.4h7.96v6.16q1.479.6 2.64 1.28 1.16.68 1.8 1.28l-1.36 1.8q-1.16-.96-3.08-1.84v7q3.039 1.28 4.56 3.16 1.56 1.88 1.56 4.56m-14.72-16.6q-2.52 0-3.88.8-1.32.76-1.32 2.12 0 1.04 1 1.84 1 .76 3.8 1.52l1.04.28v-6.56zm-2.6 23.2q2.36 0 3.56-.68t1.2-1.92q0-2.16-4.28-3.36l-.48-.16zm25.905-23.12h-10.52V23h35.08v2.36h-10.56V51h-14z"/></svg>