<svg xmlns="http://www.w3.org/2000/svg" width="18" height="18" fill="none"><path stroke="#0b0c0f" stroke-linecap="round" stroke-linejoin="round" stroke-width="2" d="M12 3.222v11.556c0 .413 0 .62.039.79.157.706.777 1.258 1.57 1.398.194.034.426.034.89.034.465 0 .699 0 .892-.034.793-.14 1.413-.692 1.571-1.397.038-.17.038-.375.038-.78V3.21c0-.405 0-.61-.038-.78-.158-.706-.778-1.256-1.572-1.397C15.197 1 14.965 1 14.5 1c-.464 0-.697 0-.89.034-.794.14-1.414.691-1.571 1.397-.039.171-.039.378-.039.791M1 3.222v11.556c0 .413 0 .62.039.79.157.706.777 1.258 1.57 1.398.194.034.426.034.89.034.465 0 .699 0 .892-.034.793-.14 1.413-.692 1.571-1.397.038-.17.038-.375.038-.78V3.21c0-.405 0-.61-.038-.78-.158-.706-.778-1.256-1.572-1.397C4.197 1 3.965 1 3.5 1s-.697 0-.89.034c-.794.14-1.414.691-1.571 1.397C1 2.602 1 2.809 1 3.222"/></svg>
