<svg xmlns="http://www.w3.org/2000/svg" width="16" height="16" fill="none"><path fill="#f2ece6" fill-opacity=".8" d="M8.317.006a8 8 0 1 0-.635 15.987A8 8 0 0 0 8.318.006m3.377 11.72a.477.477 0 0 1-.651.18 9.6 9.6 0 0 0-3.425-1.165 9.6 9.6 0 0 0-3.614.175.478.478 0 1 1-.225-.929c1.3-.315 2.636-.38 3.972-.193 1.335.188 2.601.619 3.765 1.28.229.132.309.423.179.652m1.052-2.1a.62.62 0 0 1-.842.251 11.8 11.8 0 0 0-3.981-1.306 11.8 11.8 0 0 0-4.187.158.62.62 0 0 1-.74-.473.62.62 0 0 1 .473-.74 13 13 0 0 1 4.627-.176c1.55.218 3.031.704 4.399 1.444a.62.62 0 0 1 .25.841zM13.91 7.26a.764.764 0 0 1-1.03.325 14.3 14.3 0 0 0-4.613-1.472 14.3 14.3 0 0 0-4.839.144.764.764 0 0 1-.304-1.497 15.8 15.8 0 0 1 5.356-.16c1.792.252 3.51.8 5.105 1.63.374.195.52.656.325 1.03"/></svg>
