<svg xmlns="http://www.w3.org/2000/svg" width="16" height="16" fill="none"><path fill="#f2ece6" d="M15.225.128c.517.044.775.56.775.586l-.004.021-.002.011-.003.012-.007.034-.026.125-.102.47-.362 1.677-1.101 5.09-1.102 5.092-.362 1.678-.102.47-.027.124-.006.032-.003.008v.003l-.056-.015c-.239.376-.71.487-.803.446l-.076-.05-.03-.026-.017-.016-.018-.016-.045-.044-.16-.16-.568-.567-1.72-1.722-.999-1.003-2.635 3.442-.037.043c-.451.19-.941-.13-.984-.226l-.025-.086-.007-.04-.003-.021-.002-.022-.007-.052q-.005-.065-.02-.18l-.068-.642-.412-3.895-.058-.55-3.73-2.233a.67.67 0 0 1-.31-.607.65.65 0 0 1 .367-.568L15.176 0zM5.796 15.312v.003-.004l-.001-.011zm-3.818-7.88 2.914 1.744c.17.102.285.288.307.499v.003q0 .005.002.013.001.015.005.047l.019.18.067.642c.056.53.13 1.239.206 1.947.048.454.095.909.139 1.316L7.414 11.5l-.402-.403-.159-.159-.042-.042-.01-.01-.004-.004a.695.695 0 0 1-.04-.916l3.402-4.138.894.871-3.008 3.658.347.348 3.44 3.445.024.026.267-1.23 1.101-5.092 1.102-5.09c.085-.397.162-.756.23-1.066z"/></svg>
