<svg xmlns="http://www.w3.org/2000/svg" width="16" height="16" fill="none"><path fill="#f2ece6" d="M8 0a8 8 0 1 1 0 16A8 8 0 0 1 8 0m3.27 4.816c-.3.006-.762.167-2.983 1.09q-1.168.486-4.666 2.009-.568.225-.595.442c-.034.277.364.363.865.526.408.133.957.288 1.243.295q.389.008.868-.322 3.267-2.205 3.374-2.23c.05-.011.12-.025.166.017.047.041.042.12.037.141-.041.17-2.086 2.031-2.204 2.154-.45.467-.962.753-.173 1.273.683.45 1.081.738 1.785 1.2.45.294.803.644 1.268.602.214-.02.435-.221.547-.82.265-1.417.786-4.488.906-5.753.01-.11-.003-.252-.014-.314a.34.34 0 0 0-.113-.217.53.53 0 0 0-.31-.093"/></svg>
